<svg xmlns="http://www.w3.org/2000/svg" xmlns:xlink="http://www.w3.org/1999/xlink" width="1066" zoomAndPan="magnify" viewBox="0 0 799.5 799.49998" height="1066" preserveAspectRatio="xMidYMid meet" version="1.0"><defs><clipPath id="49244ecb67"><path d="M 335 122 L 687 122 L 687 677 L 335 677 Z M 335 122 " clip-rule="nonzero"/></clipPath><clipPath id="37259454ce"><path d="M 571.570312 271.132812 C 570.628906 269.492188 568.878906 268.472656 566.992188 268.480469 L 491.921875 268.480469 C 491.171875 268.480469 490.589844 268.761719 489.941406 269.03125 L 489.511719 268.859375 L 447.890625 268.859375 C 447.910156 268.460938 447.921875 258.050781 447.960938 257.671875 C 450.941406 204.5625 497.402344 191.101562 513.230469 188.269531 C 515.742188 187.820312 517.558594 185.621094 517.53125 183.070312 L 517.441406 127.742188 C 517.441406 126.289062 516.839844 124.902344 515.78125 123.910156 C 514.71875 122.921875 513.300781 122.402344 511.851562 122.492188 C 481.789062 124.410156 377.640625 147.890625 372.160156 257.671875 L 372.089844 268.839844 L 340.242188 268.839844 C 339.019531 268.851562 337.851562 269.332031 336.992188 270.199219 C 336.128906 271.070312 335.652344 272.242188 335.660156 273.460938 L 335.660156 327.089844 C 335.660156 329.640625 337.710938 331.722656 340.242188 331.722656 L 367.128906 331.722656 C 369.652344 331.722656 371.710938 333.78125 371.710938 336.300781 L 371.710938 569.519531 C 371.710938 572.378906 374.019531 574.691406 376.859375 574.691406 L 442.25 574.691406 C 443.71875 574.671875 445.109375 574.019531 446.070312 572.902344 C 447.230469 571.929688 447.910156 570.511719 447.929688 569 L 447.929688 336.492188 C 447.929688 335.101562 448.5 333.839844 449.402344 332.902344 C 450.289062 332.160156 451.402344 331.742188 452.558594 331.722656 L 515.679688 330.871094 C 517.589844 330.851562 519.359375 331.859375 520.308594 333.519531 L 598.921875 469.679688 C 599.839844 471.28125 599.871094 473.242188 598.992188 474.871094 L 494.742188 668.820312 C 493.859375 670.460938 493.898438 672.441406 494.851562 674.050781 C 495.800781 675.660156 497.519531 676.640625 499.390625 676.652344 L 574.601562 676.652344 C 576.539062 676.652344 578.308594 675.582031 579.230469 673.871094 L 686.261719 474.878906 C 687.148438 473.25 687.128906 471.28125 686.210938 469.679688 Z M 571.570312 271.132812 " clip-rule="nonzero"/></clipPath><clipPath id="fa94f3096d"><path d="M 662 267.222656 L 796 267.222656 L 796 431.945312 L 662 431.945312 Z M 662 267.222656 " clip-rule="nonzero"/></clipPath><clipPath id="8fdac1638c"><path d="M 794.289062 270.609375 C 793.359375 269.011719 791.660156 268.019531 789.808594 267.992188 C 770.898438 267.78125 726.269531 268.160156 714.148438 268.300781 C 712.238281 268.320312 710.5 269.390625 709.609375 271.082031 L 663.589844 356.28125 C 662.699219 357.910156 662.742188 359.878906 663.679688 361.480469 L 703.058594 428.75 C 704.03125 430.378906 705.808594 431.371094 707.710938 431.339844 C 709.609375 431.3125 711.351562 430.25 712.261719 428.582031 L 794.359375 275.800781 C 795.261719 274.179688 795.238281 272.210938 794.308594 270.609375 " clip-rule="nonzero"/></clipPath><clipPath id="f9eba4378d"><path d="M 5 258 L 336 258 L 336 677.535156 L 5 677.535156 Z M 5 258 " clip-rule="nonzero"/></clipPath><clipPath id="e7c4b62101"><path d="M 255.582031 439.351562 C 248.371094 472.300781 222.671875 498.070312 189.730469 505.371094 C 159.960938 512.289062 128.742188 503.320312 107.160156 481.679688 C 85.5625 459.992188 76.628906 428.710938 83.539062 398.890625 C 90.75 365.941406 116.449219 340.171875 149.390625 332.871094 C 179.160156 325.949219 210.390625 334.910156 231.960938 356.5625 C 253.5625 378.25 262.492188 409.53125 255.582031 439.351562 M 239.0625 271.929688 C 167.019531 240.449219 106.070312 271.742188 86.640625 284.261719 C 76.492188 290.851562 76.929688 269.339844 67.210938 269.339844 L 10.152344 269.339844 C 7.300781 269.339844 5 271.652344 5 274.492188 L 5 672.359375 C 5 675.210938 7.3125 677.53125 10.152344 677.53125 L 74.941406 677.53125 C 76.3125 677.53125 77.621094 676.992188 78.589844 676.019531 C 79.5625 675.050781 80.101562 673.730469 80.089844 672.371094 L 80.089844 559 C 80.089844 555.011719 84.410156 552.5 87.832031 554.539062 C 102.140625 563.210938 134.992188 579.878906 175.359375 579.878906 C 269.230469 579.878906 344.480469 498.5625 334.839844 402.519531 C 329.058594 345.160156 291.75 294.980469 239.070312 271.921875 " clip-rule="nonzero"/></clipPath></defs><g clip-path="url(#49244ecb67)"><g clip-path="url(#37259454ce)"><path fill="#ffffff" d="M 0 117.472656 L 800 117.472656 L 800 682.527344 L 0 682.527344 Z M 0 117.472656 " fill-opacity="1" fill-rule="nonzero"/></g></g><g clip-path="url(#fa94f3096d)"><g clip-path="url(#8fdac1638c)"><path fill="#ffffff" d="M 0 117.472656 L 800 117.472656 L 800 682.527344 L 0 682.527344 Z M 0 117.472656 " fill-opacity="1" fill-rule="nonzero"/></g></g><g clip-path="url(#f9eba4378d)"><g clip-path="url(#e7c4b62101)"><path fill="#ffffff" d="M 0 117.472656 L 800 117.472656 L 800 682.527344 L 0 682.527344 Z M 0 117.472656 " fill-opacity="1" fill-rule="nonzero"/></g></g></svg>