<svg xmlns="http://www.w3.org/2000/svg" id="Camada_1" data-name="Camada 1" viewBox="0 0 506.84 87.42"><defs><style>.cls-1{fill:#9500bc;}</style></defs><path d="M46.49,9.5A27.7,27.7,0,0,0,43.7,8.28a33.93,33.93,0,0,0-12-2,30,30,0,0,0-15,4.09A29.66,29.66,0,0,0,5.52,21.47a30.55,30.55,0,0,0-.15,30.1,28.46,28.46,0,0,0,11,10.86,30.83,30.83,0,0,0,28.2,1.12,28.26,28.26,0,0,0,7.28-4.89c-.11,4.93-.75,8.55-1.9,10.76a15,15,0,0,1-6.4,6.07A23.92,23.92,0,0,1,32.15,78,24.78,24.78,0,0,1,20.6,75.58a18.9,18.9,0,0,1-7.43-7.44,1.76,1.76,0,0,0-2.65-.47L5.19,72.15a1.75,1.75,0,0,0-.37,2.25,27.23,27.23,0,0,0,4.47,5.76,27.77,27.77,0,0,0,9.83,5.77,39.69,39.69,0,0,0,13.39,2.12A33.92,33.92,0,0,0,50,83.7,23.78,23.78,0,0,0,60.44,71.1c1.47-3.83,2.18-9.6,2.18-17.65q0-6.89,0-13.77c0-2.16,0-4.33,0-6.49C62.85,26.58,59.2,19,54.3,14.6A37,37,0,0,0,46.49,9.5Zm.35,41.34c-3.66,3.63-8.43,5.39-14.59,5.39s-10.78-1.78-14.54-5.45A18.29,18.29,0,0,1,12.14,37a20.4,20.4,0,0,1,2.72-10.26,19.64,19.64,0,0,1,7.45-7.41,20.83,20.83,0,0,1,10.35-2.69,20,20,0,0,1,10,2.62,18.55,18.55,0,0,1,7.1,7.07,20.7,20.7,0,0,1,2.52,10.27C52.27,42.56,50.49,47.22,46.84,50.84Z" transform="translate(-1.48 -0.63)"></path><path d="M300.67,6.26a29.27,29.27,0,0,0-22.55,9.89A30.79,30.79,0,0,0,270,37.35a30.62,30.62,0,0,0,8.54,21.46c5.7,6.13,13.14,9.24,22.1,9.24s16.36-3.11,22.08-9.24a30.56,30.56,0,0,0,8.57-21.46,30.87,30.87,0,0,0-8.1-21.26A29.33,29.33,0,0,0,300.67,6.26Zm17.19,41.61a18.72,18.72,0,0,1-7.15,7.37,20.7,20.7,0,0,1-20,0,18.71,18.71,0,0,1-7.2-7.37,21.21,21.21,0,0,1-2.69-10.4,20.12,20.12,0,0,1,5.88-14.67,19.15,19.15,0,0,1,27.94,0,20.13,20.13,0,0,1,5.89,14.67A21.37,21.37,0,0,1,317.86,47.87Z" transform="translate(-1.48 -0.63)"></path><path d="M124.53,16a29.25,29.25,0,0,0-22.45-9.79,29.17,29.17,0,0,0-22.46,9.86,30.66,30.66,0,0,0-8.06,21.12,30.53,30.53,0,0,0,8.5,21.37c5.68,6.1,13.07,9.19,22.14,9.19h0c8.51-.72,15-3.57,19.51-8.51v7a1.75,1.75,0,0,0,1.75,1.75H131a1.75,1.75,0,0,0,1.71-1.38c.07-.33.14-.64,0-29.44A30.35,30.35,0,0,0,124.53,16Zm-3.89,24.12c-.94,5.18-5.25,10.83-9.2,13.7-4.68,3.42-10.49,3.9-16,2.71C90.67,54.2,87.28,51.31,85.33,48a20.85,20.85,0,0,1-3-10.65,20.07,20.07,0,0,1,5.85-14.6,18.56,18.56,0,0,1,13.91-6,18.07,18.07,0,0,1,13.74,6c4.07,4.32,5,9.72,5,15.53A11.56,11.56,0,0,1,120.64,40.16Z" transform="translate(-1.48 -0.63)"></path><path class="cls-1" d="M407.36,21.1a2.16,2.16,0,0,0,0,4.32A12.36,12.36,0,0,1,417,29.58a13.1,13.1,0,0,1,3.46,9.13,2.16,2.16,0,0,0,4.32,0,17.48,17.48,0,0,0-4.59-12A16.66,16.66,0,0,0,407.36,21.1Z" transform="translate(-1.48 -0.63)"></path><path d="M408.94,6.26a29.29,29.29,0,0,0-22.56,9.89,30.84,30.84,0,0,0-8.09,21.2,30.66,30.66,0,0,0,8.54,21.46c5.7,6.13,13.14,9.24,22.11,9.24S425.3,64.94,431,58.81a30.56,30.56,0,0,0,8.57-21.46,30.87,30.87,0,0,0-8.1-21.26A29.31,29.31,0,0,0,408.94,6.26Zm17.18,41.61A18.7,18.7,0,0,1,419,55.24a20.72,20.72,0,0,1-20,0,18.84,18.84,0,0,1-7.2-7.37,21.2,21.2,0,0,1-2.68-10.4A20.12,20.12,0,0,1,395,22.79a19.15,19.15,0,0,1,27.94,0,20.12,20.12,0,0,1,5.88,14.67A21.37,21.37,0,0,1,426.12,47.87Z" transform="translate(-1.48 -0.63)"></path><path d="M474.13,8.92a16.46,16.46,0,0,0-9.24-2.65,30.16,30.16,0,0,0-4.57.57A15.39,15.39,0,0,0,456.64,8,15.56,15.56,0,0,0,450.78,13,18.17,18.17,0,0,0,449.53,15c-.19.34-.38.68-.58,1a24,24,0,0,0-3,12V66.3a1.75,1.75,0,0,0,1.75,1.75h7.15a1.76,1.76,0,0,0,1.76-1.75V42.61H468a1.76,1.76,0,0,0,1.76-1.76V34.76A1.76,1.76,0,0,0,468,33H456.64V29.32c.79-6.5,2.49-10.61,4.83-11.87a8.77,8.77,0,0,1,5.83-.67,1.77,1.77,0,0,0,1.52-.37l5.53-4.64a1.79,1.79,0,0,0,.62-1.48A1.76,1.76,0,0,0,474.13,8.92Z" transform="translate(-1.48 -0.63)"></path><path d="M507.7,63l-5.53-4.64h0a2.39,2.39,0,0,0-2.31-.22,8.14,8.14,0,0,1-.85.08,8.44,8.44,0,0,1-1.74-.12,7.26,7.26,0,0,1-2.05-.59,6.54,6.54,0,0,1-1.47-1.21,12.44,12.44,0,0,1-2.41-3.38A16.3,16.3,0,0,1,490,45.53V42.61h11.34a1.76,1.76,0,0,0,1.76-1.75V34.77A1.76,1.76,0,0,0,501.33,33H489.94V8a1.77,1.77,0,0,0-1-1.59,1.75,1.75,0,0,0-1.87.25l-7.16,6a1.76,1.76,0,0,0-.62,1.34v32.7a23.16,23.16,0,0,0,3,12c3.46,5.85,8.28,9,14.35,9.33h.63A28.22,28.22,0,0,0,507.2,66a1.75,1.75,0,0,0,1.1-1.35A1.72,1.72,0,0,0,507.7,63Z" transform="translate(-1.48 -0.63)"></path><path d="M369.05,40.26c-1.81-2.46-4.9-4.87-9.42-7.38l-.11-.06-.1-.06c-.58-.32-1.18-.64-1.81-1-5.11-2.62-7.16-4.41-8-5.5a6,6,0,0,1-1.65-3.92,5.39,5.39,0,0,1,1.91-4.13,6.75,6.75,0,0,1,4.78-1.81c3,0,6.14,1.55,9.46,4.61a1.75,1.75,0,0,0,2.32.06l5.09-4.27a1.77,1.77,0,0,0,.62-1.29,1.75,1.75,0,0,0-.54-1.32c-5.5-5.29-11.11-8-16.64-8a16.73,16.73,0,0,0-12.07,4.66A15.71,15.71,0,0,0,338,22.68a16,16,0,0,0,3,9.61c2,2.83,5.53,5.51,10.86,8.19,5.51,2.83,7.61,4.57,8.41,5.53a6.61,6.61,0,0,1,1.57,4.35,6.79,6.79,0,0,1-2.44,5.16,8.63,8.63,0,0,1-6.08,2.29c-3.34,0-6.48-1.6-9.62-4.89a1.76,1.76,0,0,0-2.39-.13l-5.2,4.37a1.48,1.48,0,0,0-.25.25,1.76,1.76,0,0,0,0,2.16,20.92,20.92,0,0,0,7.85,6.26,23.26,23.26,0,0,0,9.93,2.22,18.07,18.07,0,0,0,13.2-5.24,17.33,17.33,0,0,0,5.3-12.76,16.45,16.45,0,0,0-3.11-9.77S369.05,40.27,369.05,40.26Z" transform="translate(-1.48 -0.63)"></path><path d="M263,34.75a30.71,30.71,0,0,0-7.88-18.66,30.72,30.72,0,0,0-45.1.06A30.79,30.79,0,0,0,202,37.35a24.36,24.36,0,0,0,.26,3.18l.06.51a1,1,0,0,0,0,.17A32,32,0,0,0,210,58.56c5.42,6.3,13,9.49,22.53,9.49a32.59,32.59,0,0,0,11.6-2,29.41,29.41,0,0,0,9.31-5.73,30.72,30.72,0,0,0,5.53-7,1.77,1.77,0,0,0-.38-2.25l-5.34-4.48a1.78,1.78,0,0,0-1.39-.39,1.76,1.76,0,0,0-1.21.79,28.55,28.55,0,0,1-4.82,6,20.33,20.33,0,0,1-6.27,3.6,21.7,21.7,0,0,1-7.64,1.39,17.81,17.81,0,0,1-13.46-5.67,19.35,19.35,0,0,1-5-9.65h47.74a1.75,1.75,0,0,0,1.74-1.5,27.21,27.21,0,0,0,.31-3.9,14.58,14.58,0,0,0-.14-1.77C263.07,35.3,263,35,263,34.75Zm-49.78-1.63a19.7,19.7,0,0,1,5.38-10.33,19.15,19.15,0,0,1,27.94,0A19.65,19.65,0,0,1,252,33.12Z" transform="translate(-1.48 -0.63)"></path><path class="cls-1" d="M174.56,7.35A11,11,0,0,1,168.08.87a.39.39,0,0,0-.72,0,11,11,0,0,1-6.48,6.48.39.39,0,0,0,0,.72,11,11,0,0,1,6.48,6.48.39.39,0,0,0,.72,0,11,11,0,0,1,6.48-6.48A.39.39,0,0,0,174.56,7.35Z" transform="translate(-1.48 -0.63)"></path><path d="M144.48,6.68a1.8,1.8,0,0,0-3,1.38l-.05,56.69v1.41A1.8,1.8,0,0,0,143.26,68l7.37.07a1.8,1.8,0,0,0,1.82-1.79V64.75l0-50.52a1.82,1.82,0,0,0-.64-1.38Z" transform="translate(-1.48 -0.63)"></path><path d="M186,6.68a1.8,1.8,0,0,0-3,1.38L183,64.75v1.41A1.81,1.81,0,0,0,184.8,68l7.38.07A1.81,1.81,0,0,0,194,66.26V64.75l0-50.52a1.8,1.8,0,0,0-.65-1.38Z" transform="translate(-1.48 -0.63)"></path><path d="M173.21,22.05V20.54a1.82,1.82,0,0,0-1.83-1.79l-7.37.07a1.81,1.81,0,0,0-1.79,1.82V66.16A1.81,1.81,0,0,0,164,68l7.37.07a1.81,1.81,0,0,0,1.83-1.79V22.05Z" transform="translate(-1.48 -0.63)"></path></svg>