<?xml version="1.0" encoding="UTF-8"?>
<svg id="Camada_1" data-name="Camada 1" xmlns="http://www.w3.org/2000/svg" viewBox="0 0 220 220">
  <defs>
    <style>
      .cls-1 {
        fill: #fff;
      }
    </style>
  </defs>
  <path class="cls-1" d="m108.6,41.19c-11.62-.16-22.61,2.57-32.28,7.52,7.76-3.22,16.29-4.95,25.22-4.82,35.05.5,63.07,29.32,62.57,64.37-.5,35.05-29.32,63.07-64.37,62.57-24.75-.35-45.99-14.82-56.16-35.64,9.92,25.21,34.31,43.21,63.07,43.62,38,.54,69.24-29.83,69.78-67.83.54-38-29.83-69.24-67.83-69.78Z"/>
  <path class="cls-1" d="m100.37,164.58c9.7.14,18.88-2.14,26.96-6.28-6.48,2.69-12.2,4.13-19.66,4.03-29.27-.42-52.66-24.48-52.24-53.75.42-29.27,23.55-51.73,52.82-51.31,20.67.29,37.93,11.45,46.42,28.83-8.29-21.05-28.65-36.08-52.66-36.42-31.73-.45-57.81,24.91-58.26,56.63-.45,31.73,24.91,57.81,56.63,58.26Z"/>
  <ellipse class="cls-1" cx="109.38" cy="109.66" rx="4.56" ry="32.65"/>
</svg>