<?xml version="1.0" encoding="UTF-8"?>
<svg id="Camada_1" data-name="Camada 1" xmlns="http://www.w3.org/2000/svg" viewBox="0 0 220 220">
  <defs>
    <style>
      .cls-1 {
        fill: #fff;
      }
    </style>
  </defs>
  <path class="cls-1" d="m147.09,168.71c-.16.09-.33.19-.49.28-.21.12-.43.25-.64.37-.16.09-.33.19-.49.28-.32.18-.65.36-.97.53-1.3.65-2.6,1.3-3.9,1.95l-.92.4c-.18.08-.36.17-.55.25l-.92.4c-.51.19-1.01.38-1.52.58-.31.13-.61.27-.92.4l-.38.09c-.31.13-.61.27-.92.4-.99.3-1.99.6-2.98.9-.22.11-.43.22-.65.33h-.49c-.22.11-.43.22-.65.33-1.23.28-2.45.56-3.68.83-.94.21-1.89.39-2.83.59-.21.07-.43.14-.64.21h-.33c-.22.05-.43.11-.65.16-1.11.1-2.22.2-3.33.3-1.17.11-2.33.23-3.5.35-.22.05-.43.11-.65.16-1.76,0-3.52.05-5.27-.04-2.83-.16-5.65-.42-8.47-.63-.24-.02-.49.01-.73.02-.22-.05-.43-.11-.65-.16-2.65-.54-5.31-1.08-7.96-1.63-.22-.05-.43-.11-.65-.16-.54-.16-1.08-.33-1.63-.49-.38-.11-.76-.22-1.14-.33-.54-.17-1.07-.35-1.61-.52-.27-.11-.55-.22-.82-.34-.32-.1-.64-.21-.96-.31-.82-.33-1.63-.66-2.45-.99-.1-.05-.21-.1-.31-.15-.27-.11-.55-.22-.82-.34-.21-.1-.43-.21-.64-.31-.27-.11-.55-.22-.82-.34-1.19-.6-2.38-1.19-3.58-1.79-.33-.2-.66-.4-.98-.61-.16-.07-.32-.14-.48-.21l-.49-.33c-.22-.11-.43-.22-.65-.32-.43-.27-.87-.54-1.3-.81l-.81-.49c-.81-.54-1.63-1.08-2.44-1.63-.75-.67-1.43-.85-2.07-.41-.53.37-.99.86-.85,1.61.03.16.18.3.27.45.17.28.34.55.51.83.54.81,1.09,1.62,1.63,2.43.45.61.9,1.22,1.35,1.84,0,0,.05.06.05.06.2.25.4.5.6.76,0,0,.05.06.05.06.17.18.34.36.51.55l.53.65c.15.2.3.41.46.61-1.13.42-2.26.85-3.39,1.27-.21.07-.42.13-.64.2-.17.04-.33.08-.5.13l-.64.19c-.43.11-.87.22-1.3.33-.22.07-.43.14-.65.2-.6.1-1.19.2-1.79.31-.22.06-.43.12-.65.18-.11,0-.22-.02-.33-.03-.22.06-.43.13-.65.19-.16,0-.33,0-.49-.01-.22.06-.43.12-.65.18-1.14.1-2.27.26-3.41.28-2.16.05-4.32.12-6.47-.02-2-.13-3.99-.54-5.98-.82-.08-.01-.16,0-.24.01-.22-.05-.43-.1-.65-.15-2.36-.66-4.72-1.31-7.08-1.97-.83-.32-1.67-.64-2.5-.96-.1-.05-.21-.1-.31-.15-.27-.13-.54-.26-.81-.4-.98-.47-1.96-.93-2.94-1.4-.16-.13-.31-.26-.47-.39-.76-.41-1.53-.83-2.29-1.24-.16-.11-.33-.22-.49-.33-.43-.27-.86-.54-1.28-.8-.82-.6-1.63-1.2-2.45-1.8-.05-.05-.1-.1-.15-.15-.22-.17-.44-.33-.66-.5-.05-.05-.1-.1-.15-.15-.22-.21-.45-.41-.67-.62-.1-.07-.2-.13-.31-.2-.33-.31-.66-.63-.99-.94-.37-.34-.75-.67-1.12-1.01-.55-.55-1.09-1.09-1.64-1.64-.38-.43-.76-.87-1.14-1.3-.27-.27-.54-.54-.81-.81-.05-.05-.1-.1-.15-.15-.27-.33-.55-.66-.82-.98,0,0,0,0,0,0-.65-.87-1.3-1.73-1.95-2.6-.54-.81-1.08-1.62-1.62-2.44-.11-.16-.22-.33-.33-.49-.05-.11-.11-.22-.16-.32-.11-.16-.22-.33-.33-.49-.05-.11-.11-.22-.16-.32-.11-.22-.23-.44-.34-.66-.17-.32-.35-.64-.52-.96l-1.1-2.13c-.12-.32-.24-.64-.37-.96-.15-.28-.3-.55-.45-.83-.51-1.44-1.04-2.87-1.52-4.33-.41-1.25-.75-2.52-1.12-3.78-.05-.22-.11-.43-.16-.65-.11-.6-.22-1.19-.32-1.79-.05-.22-.11-.43-.16-.65,0-.11,0-.22,0-.33-.05-.22-.11-.43-.16-.65,0-.16,0-.33,0-.49-.05-.22-.11-.43-.16-.65-.1-1.7-.26-3.41-.28-5.11-.02-1.96.03-3.92.17-5.87.1-1.39.41-2.76.62-4.14.02-.16-.01-.32-.02-.48.12-.49.23-.97.35-1.46.05-.27.1-.54.15-.81.16-.65.33-1.3.49-1.95.05-.16.1-.33.16-.49.07-.21.15-.43.22-.64.31-.92.62-1.85.93-2.77.08-.21.15-.42.23-.63.21-.53.42-1.07.62-1.6.14-.29.29-.57.43-.86.18-.42.36-.85.53-1.27.31-.6.63-1.21.94-1.81.17-.32.34-.64.51-.96.5-.81.99-1.63,1.49-2.44.48-.76.97-1.52,1.45-2.28.49-.65.97-1.3,1.46-1.95,0,0,0,0,0,0,.22-.27.44-.55.65-.82,0,0,0,0,0,0,.22-.22.44-.44.66-.66.1-.16.21-.32.31-.48.33-.33.66-.66.99-.99,1.03-1.03,2.06-2.06,3.09-3.09.33-.33.65-.65.98-.98.22-.16.43-.33.65-.49,1.35-1.03,2.71-2.06,4.06-3.09.48-.32.97-.64,1.45-.96.92-.55,1.85-1.09,2.77-1.64.43-.21.86-.43,1.29-.64.22-.11.43-.22.65-.32.19-.06.39-.11.68-.2-.12.75-.23,1.44-.33,2.13-.05.22-.11.43-.16.65,0,.11,0,.22,0,.32-.05.22-.11.43-.16.65-.16,1.57-.33,3.14-.49,4.71-.02.21-.03.43-.05.64-.04.65-.08,1.3-.12,1.96v.65c0,2.44-.05,4.87,0,7.31.02,1.14.22,2.28.33,3.42.05.22.11.43.16.65.05.54.11,1.08.16,1.63.05.22.11.43.16.65,0,.11,0,.22,0,.32.05.22.11.43.16.65l.49,2.6c.05.22.11.43.16.65.22.87.43,1.73.65,2.6.05.22.11.43.16.65.22.7.43,1.41.65,2.11.31.92.62,1.85.93,2.77.25.69.51,1.39.76,2.08.22.53.45,1.06.67,1.59.21.5.42,1,.63,1.5.12.26.23.52.35.78.67,1.37,1.35,2.75,2.02,4.12.19.31.37.61.56.92.03.07.06.15.09.22.19.31.37.61.56.92.03.07.06.15.09.22.19.31.37.61.56.92l.26.38c.19.31.37.61.56.92.56.78,1.12,1.57,1.68,2.35.88,1.21,1.76,2.42,2.65,3.63,0,0,.05.06.05.06.24.29.48.58.71.87l.32.32c.16.22.33.43.49.65l.16.16c.27.33.54.65.81.98.11.11.22.22.32.32.27.33.54.65.81.98.92.92,1.84,1.84,2.76,2.76l1.47.77c.27-.04.55-.08.82-.12.27-.11.55-.22.82-.34.1-.05.21-.1.31-.15.4-.49.81-.97,1.21-1.46.07-.39.15-.78.22-1.16-.05-.22-.11-.43-.16-.65-.09-.22-.19-.44-.28-.66-.11-.16-.22-.33-.33-.49-.32-.49-.65-.97-.97-1.46-.22-.33-.43-.65-.65-.98-.05-.11-.11-.22-.16-.32-.11-.16-.22-.33-.33-.49l-.16-.32c-.33-.54-.65-1.08-.98-1.63-.12-.27-.25-.54-.37-.8-.2-.33-.4-.66-.61-.98-.27-.54-.54-1.08-.81-1.62-.17-.38-.33-.77-.5-1.15-.16-.32-.32-.64-.48-.96-.11-.27-.22-.55-.34-.82-.32-.81-.64-1.62-.96-2.43-.11-.27-.22-.55-.34-.82-.39-1.19-.78-2.37-1.17-3.56-.05-.22-.11-.43-.16-.65-.05-.16-.11-.33-.16-.49-.05-.22-.11-.43-.16-.65-.22-.87-.43-1.73-.65-2.6-.05-.22-.11-.43-.16-.65-.22-1.33-.46-2.66-.66-3.99-.22-1.5-.52-3-.59-4.5-.13-2.91-.27-5.83-.15-8.74.12-2.74.53-5.46.89-8.18.51-3.76,1.64-7.37,2.78-10.97.01-.06.02-.12.04-.18.14-.28.29-.55.43-.83.02-.16.04-.31.05-.47l.99-2.45c.05-.1.1-.21.15-.31.11-.27.22-.55.34-.82.05-.11.11-.22.16-.33.74-1.41,1.49-2.82,2.23-4.23.11-.22.22-.43.33-.65.07-.16.14-.32.21-.48.15-.22.3-.44.44-.66.18-.32.36-.65.53-.97.15-.22.3-.44.44-.66.12-.21.25-.43.37-.64l.97-1.45c.23-.29.46-.59.69-.88.69-.95,1.39-1.91,2.09-2.86,0,0,0,0,0,0,.18-.17.36-.35.54-.52.09-.15.18-.3.27-.45.22-.22.44-.44.66-.66l.31-.48c.31-.33.63-.66.94-.99.28-.32.56-.64.85-.96l2.77-2.77c.38-.32.76-.65,1.14-.97.27-.27.54-.54.81-.81.16-.11.32-.22.49-.32.54-.49,1.08-.97,1.62-1.46,0,0,0,0,0,0,1.08-.81,2.17-1.62,3.25-2.44.16-.11.32-.22.49-.32.76-.49,1.52-.98,2.29-1.47.16-.1.32-.21.48-.31.82-.49,1.63-.98,2.45-1.47.21-.1.43-.21.64-.31.27-.17.55-.33.82-.5.33-.16.65-.33.98-.49.16-.05.32-.1.48-.15.22-.11.44-.22.66-.34.16-.05.32-.1.48-.15.32-.13.65-.26.97-.39.22-.09.44-.17.66-.26,1.19-.41,2.37-.85,3.57-1.23,1.07-.34,2.17-.62,3.25-.93.22-.05.43-.11.65-.16.65-.16,1.3-.33,1.95-.49.22-.05.43-.11.65-.16,2.73-.43,5.47-.85,8.2-1.28.09-.01.17-.09.26-.14l.64-.05c1.52-.11,3.03-.22,4.55-.33.22-.01.43-.02.65-.04,1.4.02,2.81-.03,4.21.08,2.68.21,5.35.51,8.02.8,1.13.12,2.25.31,3.37.46.49.11.98.22,1.46.33l4.06.98c.22.05.43.11.65.16.16.05.33.11.49.16.22.05.43.11.65.16.33.11.65.22.98.33l2.11.68c.32.11.65.23.97.34.27.1.55.21.82.31.16.06.32.12.48.18.54.22,1.08.43,1.63.65.11.05.22.11.32.16.27.11.54.22.81.33.11.05.22.11.32.16.38.16.76.33,1.14.49,1.3.65,2.6,1.3,3.9,1.95.33.2.65.4.98.6.16.07.32.14.48.21l.66.44c.32.18.65.36.97.53.65.42,1.3.84,1.96,1.25.54.34,1.08.68,1.62,1.02.22.16.43.33.65.49l.49.32c.88.67,1.76,1.34,2.64,2,0,0,.05.06.05.05.24.18.48.36.72.54.11.11.22.22.32.32.22.16.43.33.65.49.16.16.32.32.49.49.33.27.65.54.98.81.22.22.43.43.65.65.38.33.76.65,1.14.98l2.27,2.27c.33.38.65.76.98,1.14.27.27.54.54.81.81.27.33.54.65.81.98.11.11.22.22.32.32.12.18.25.36.37.54,0,0,.05.06.06.05.08.29.16.58.23.88-.11,0-.22,0-.33,0-.22.05-.43.11-.65.16-1.44.28-2.89.55-4.33.84-.24.05-.48.17-.71.25-.21.07-.43.14-.64.21-1.39.44-2.79.88-4.18,1.33-.12.04-.24.09-.37.14-.31.13-.61.27-.92.4-.07.03-.15.06-.22.09-.31.13-.61.27-.92.4-.18.08-.36.17-.55.25-.31.13-.61.27-.92.4-.56.29-1.13.57-1.69.86-.32.18-.65.36-.97.53-.27.15-.55.29-.82.44-.49.29-.97.57-1.46.86-.22.15-.44.29-.66.44-1.08.72-2.16,1.44-3.24,2.16-.27.2-.55.4-.82.6l-1.53,1.19s-.06.05-.06.05c-.17.14-.35.28-.52.42-.16.15-.33.29-.49.44-.33.27-.65.54-.98.81-1.25,1.25-2.49,2.49-3.74,3.74-.22.27-.43.54-.65.81-.05.05-.11.11-.16.16-.27.33-.54.65-.81.98-.07.08-.13.16-.2.24-.14.36-.28.72-.42,1.08.05.27.11.54.16.81.48.48.96.96,1.44,1.44.81.34,1.51.17,2.12-.44,1.2-.87,2.39-1.74,3.59-2.61.32-.21.64-.43.96-.64.71-.44,1.42-.87,2.12-1.31.1-.05.21-.1.31-.15.27-.17.55-.33.82-.5,1.12-.52,2.25-1.04,3.37-1.57.12-.07.24-.14.35-.21,1.2-.49,2.39-.98,3.59-1.47.64-.17,1.29-.35,1.93-.52,1.73-.43,3.47-.87,5.2-1.3.22-.05.43-.11.65-.16.81-.15,1.63-.29,2.44-.44l.64-.05c1.55-.12,3.09-.34,4.64-.33,2.25.02,4.5.18,6.75.36,1.51.12,3,.37,4.5.6.78.12,1.54.33,2.32.5.22.05.43.11.65.16.38.11.76.22,1.14.33.22.05.43.11.65.16l2.59.86c.27.11.54.22.81.33.54.21,1.09.42,1.63.63.27.11.54.23.81.34.33.16.65.32.98.49.82.42,1.63.84,2.45,1.25.27.12.54.25.81.37l.66.44.48.21c.22.15.44.29.66.44.38.23.75.46,1.13.7.16.11.32.22.49.32.32.22.65.43.97.65.66.5,1.33,1.01,1.99,1.51,0,0,.05.06.05.05.24.18.48.36.72.54.11.11.22.22.32.32.22.16.43.33.65.49.22.22.43.43.65.65.33.27.65.54.98.81l2.27,2.27c.27.33.54.65.81.98.22.22.43.43.65.65.16.22.33.43.49.65.11.11.22.22.32.32.12.18.25.36.37.54,0,0,.06.06.06.06,1.09,1.56,2.17,3.13,3.26,4.69.09.13.17.25.26.38.19.31.37.61.56.92.94,2.02,1.89,4.05,2.83,6.07.1.27.21.55.31.82.39,1.24.79,2.49,1.18,3.73.05.22.11.43.16.65.11.43.22.87.33,1.3.05.22.11.43.16.65.11.6.22,1.19.33,1.79.05.22.11.43.16.65v.32c.05.22.11.43.16.65v.49c.05.22.11.43.16.65.14,1.62.4,3.24.38,4.86-.03,2.46-.23,4.92-.41,7.37-.09,1.24-.3,2.47-.46,3.7-.11.49-.22.98-.33,1.46-.33,1.25-.65,2.49-.98,3.74-.05.22-.11.43-.16.65-.12.38-.25.75-.37,1.13-.07.17-.14.34-.21.52-.09.26-.19.52-.28.78-.07.17-.14.34-.21.52-.1.28-.2.56-.31.85-.11.26-.23.52-.34.78-.1.23-.2.46-.3.69-.22.48-.45.95-.67,1.43-.11.23-.22.46-.33.69-.24.41-.48.83-.72,1.24-.09.18-.17.36-.26.54-.18.31-.37.61-.56.92-.14.24-.28.47-.42.71-.18.31-.37.61-.56.92-.45.7-.89,1.4-1.34,2.1-.51.67-1.02,1.34-1.52,2,0,0-.06.06-.06.06-.2.25-.4.51-.6.76,0,0-.05.05-.05.05-.23.29-.46.58-.7.87-.16.16-.33.33-.49.49l-.65.81c-.92.92-1.84,1.84-2.76,2.76-.38.33-.76.65-1.14.98-.16.16-.32.32-.49.49-.16.12-.32.25-.48.37-.16.15-.33.29-.49.44-.16.12-.32.25-.48.37-.33.26-.66.51-.98.77-.16.12-.32.25-.48.37-.22.15-.44.29-.66.44-.16.12-.32.25-.48.37-.44.31-.87.62-1.31.93-1.03.61-2.05,1.22-3.08,1.83-.27.15-.55.29-.82.44-.66.34-1.32.68-1.98,1.02-.37.16-.74.32-1.11.49-.31.13-.61.27-.92.4-.07.03-.15.06-.22.09-.58.24-1.15.48-1.73.73-.29.08-.58.17-.87.25-.54.22-1.08.43-1.63.65-.33.09-.65.19-.98.28-.21.07-.43.14-.64.21-.87.2-1.74.4-2.61.6-.21.07-.43.14-.64.21l-3.09.49c-.22.05-.43.11-.65.16-1.06.09-2.12.24-3.18.25-2.37.02-4.74-.02-7.11-.07-.96-.02-1.92-.12-2.87-.18-.22-.05-.43-.11-.65-.16h-.49c-.22-.05-.43-.11-.65-.16h-.33c-.22-.05-.43-.11-.65-.16-.81-.16-1.63-.33-2.44-.49-.43-.11-.87-.22-1.3-.33-.38-.11-.76-.22-1.14-.33-.22-.05-.43-.11-.65-.16-.7-.23-1.4-.46-2.1-.69l-.82-.34c-.05-.1-.11-.19-.16-.29.27-.33.55-.66.82-.99.05-.05.1-.1.15-.15.27-.33.55-.66.82-.98,0,0,0,0,0,0,.34-.39.68-.78,1.03-1.17.16-.23.31-.45.47-.68.15-.25.3-.5.45-.74.12-.13.24-.26.36-.4.43-.63.85-1.26,1.28-1.89.11-.22.22-.43.32-.65.15-.22.3-.44.44-.66.07-.21.14-.43.21-.64-.06-.28-.12-.56-.17-.84-.05-.1-.1-.21-.15-.31-.27-.17-.55-.33-.82-.5-.11-.04-.22-.08-.33-.12-.85-.08-1.32.6-1.95.98-.22.15-.44.29-.66.44-.49.34-.97.68-1.46,1.02-.22.15-.44.29-.66.44-.65.39-1.3.79-1.94,1.18Zm-33.56-111.07c-.88.07-2.51.23-4.15.34-2.98.22-5.88.8-8.76,1.6-5.58,1.55-10.82,3.77-15.56,7.15-3.35,2.39-6.24,5.21-8.75,8.48-3.09,4.03-5.39,8.47-7.02,13.23-.81,2.38-1.28,4.88-1.82,7.34-.59,2.66-.85,5.36-.84,8.09,0,.24-.01.49,0,.73.05,1.54.06,3.09.17,4.63.06.75.62,1.12,1.37,1.22,1.17.16,1.84-.44,2.41-1.37,2.11-3.48,4.5-6.77,7.21-9.79,2.42-2.69,4.98-5.26,7.59-7.76,1.79-1.71,3.73-3.26,5.67-4.79,4.21-3.32,8.65-6.33,13.42-8.8,3.51-1.82,7.01-3.69,10.64-5.23,3.76-1.59,7.66-2.88,11.55-4.13,2.71-.87,5.52-1.46,8.29-2.14.82-.2,1.6-.91,1.73-1.7.15-.92-.21-1.65-1.12-2.11-.76-.39-1.53-.73-2.31-1.08-6.04-2.66-12.4-3.8-19.72-3.92Z"/>
</svg>