<?xml version="1.0" encoding="UTF-8"?>
<svg id="Camada_1" data-name="Camada 1" xmlns="http://www.w3.org/2000/svg" viewBox="0 0 800 800">
  <defs>
    <style>
      .cls-1 {
        fill: #793bcf;
        stroke-width: 0px;
      }
    </style>
  </defs>
  <path class="cls-1" d="m794.89,374.16c0,1.57.3,3.22-.09,4.68-.76,2.8-1.92,5.5-2.92,8.24-2.72-1.63-6.12-2.68-8.07-4.97-14.82-17.4-27.9-36.55-44.28-52.29-32.2-30.93-69.11-55.15-111.57-70.51-27.65-10-55.76-16.27-85.12-19.04-50.71-4.79-99.65,1.53-149.39,18.5,11.14,6.4,20.99,11.82,30.61,17.62,36.21,21.83,63.96,52.27,83.91,88.89,22.16,40.7,33.16,85,28.93,131.62-3.07,33.85-16.18,64.12-38.64,90.31-22.34,26.04-49.59,44.23-82.74,52.36-37.38,9.16-75.17,9.93-113.2,2.5-54.27-10.61-99.72-38.65-142.51-71.57-44.66-34.35-79.41-77.31-106.52-126.72-16.84-30.68-29.42-62.96-37.57-96.79-7.85-32.58-12.23-65.77-10.22-99.48.07-1.22.45-2.42.97-5.17,3.98.94,8.18.93,11.25,2.8,31.95,19.46,66.52,29.54,103.72,33.79,40.93,4.68,79.34-3.79,116.78-17.85,25.35-9.53,47.2-25.65,68.69-42.31,38.3-29.69,81.32-50.31,129.34-58.42,24.93-4.21,50.4-7.65,75.58-7.43,43.99.39,86.5,9.82,127.2,27.53,38.06,16.57,71.53,39.21,98.96,70.3,23.33,26.43,39.75,56.9,49.25,90.9,2.64,9.43,4.13,19.18,6.15,28.78l1.51,3.74Z"/>
  <path class="cls-1" d="m516.65,284.7c.08-11.72,8.2-19.68,19.94-19.54,11.1.13,22.46,10.81,21.2,21.23-1.4,11.65-10.04,21.21-21.12,20.31-11.92-.96-20.11-9.22-20.03-22.01Z"/>
  <path class="cls-1" d="m794.89,374.16l-1.51-3.74,1.51,3.74Z"/>
</svg>