<?xml version="1.0" encoding="UTF-8"?>
<svg id="Camada_1" data-name="Camada 1" xmlns="http://www.w3.org/2000/svg" viewBox="0 0 800 800">
  <defs>
    <style>
      .cls-1 {
        fill: #793bcf;
        stroke-width: 0px;
      }
    </style>
  </defs>
  <path class="cls-1" d="m394.39,125.03c-46.45-.66-90.36,10.25-129.02,30.04,31.01-12.88,65.09-19.79,100.8-19.28,140.09,1.99,252.04,117.17,250.06,257.26-1.99,140.09-117.17,252.04-257.26,250.06-98.92-1.4-183.79-59.24-224.45-142.43,39.66,100.73,137.12,172.67,252.06,174.3,151.86,2.16,276.72-119.21,278.87-271.07,2.16-151.86-119.21-276.72-271.07-278.88Z"/>
  <path class="cls-1" d="m361.53,618.12c38.78.55,75.45-8.56,107.73-25.09-25.89,10.75-48.74,16.52-78.55,16.1-116.97-1.66-210.44-97.83-208.78-214.79,1.66-116.97,94.11-206.72,211.07-205.06,82.59,1.17,151.56,45.75,185.51,115.2-33.11-84.1-114.48-144.17-210.46-145.53-126.8-1.8-231.04,99.53-232.84,226.33-1.8,126.8,99.53,231.04,226.33,232.84Z"/>
  <ellipse class="cls-1" cx="397.52" cy="398.64" rx="18.24" ry="130.47"/>
</svg>