<?xml version="1.0" encoding="UTF-8"?>
<svg id="Camada_1" data-name="Camada 1" xmlns="http://www.w3.org/2000/svg" viewBox="0 0 800 800">
  <defs>
    <style>
      .cls-1 {
        fill: #793bcf;
        stroke-width: 0px;
      }
    </style>
  </defs>
  <g>
    <path class="cls-1" d="m571.57,271.13c-.94-1.64-2.69-2.65-4.58-2.65h-75.07c-.75,0-1.34.28-1.98.56-.23-.03-.43-.17-.66-.17h-41.39c.02-.4.03-10.81.07-11.19,2.98-53.11,49.44-66.57,65.27-69.4,2.51-.45,4.33-2.65,4.3-5.2l-.09-55.33c0-1.45-.6-2.84-1.66-3.83s-2.48-1.51-3.93-1.42c-30.08,1.93-134.22,25.41-139.7,135.19l-.07,11.17h-31.85c-1.22,0-2.39.49-3.25,1.36-.86.87-1.34,2.04-1.33,3.26v53.63c0,2.55,2.05,4.63,4.58,4.63h26.89c2.52,0,4.58,2.06,4.58,4.58v233.21c0,2.86,2.31,5.17,5.15,5.17h65.39c1.47-.02,2.86-.67,3.82-1.79,1.16-.97,1.84-2.39,1.86-3.9v-232.5c0-1.39.57-2.65,1.47-3.59.89-.74,2-1.16,3.16-1.18l63.12-.85c1.91-.02,3.68,1,4.63,2.65l78.61,136.16c.92,1.6.95,3.56.07,5.19l-104.25,193.94c-.88,1.64-.84,3.62.11,5.23.95,1.6,2.67,2.59,4.54,2.6h75.21c1.94,0,3.71-1.07,4.63-2.78l107.02-198.99c.89-1.63.87-3.6-.05-5.2l-114.64-198.54Z"/>
    <path class="cls-1" d="m794.29,270.61c-.93-1.6-2.63-2.59-4.48-2.62-18.91-.21-63.54.17-75.66.31-1.91.02-3.65,1.09-4.54,2.78l-46.02,85.2c-.89,1.63-.85,3.6.09,5.2l39.38,67.27c.97,1.63,2.75,2.62,4.65,2.59,1.9-.04,3.64-1.09,4.55-2.76l82.1-152.78c.9-1.62.88-3.59-.05-5.19Z"/>
  </g>
  <path class="cls-1" d="m239.06,271.93c-72.04-31.48-132.99-.19-152.42,12.33-10.15,6.59-9.71-14.92-19.43-14.92H10.15c-2.85,0-5.15,2.31-5.15,5.15v397.86c0,2.84,2.31,5.17,5.15,5.17h64.79c1.37,0,2.68-.55,3.65-1.52.97-.97,1.51-2.28,1.5-3.65v-113.35c0-3.99,4.32-6.5,7.74-4.46,14.31,8.67,47.16,25.34,87.53,25.34,93.88,0,169.12-81.32,159.48-177.36-5.78-57.36-43.09-107.54-95.77-130.6Zm16.51,167.42c-7.21,32.95-32.91,58.72-65.84,66.02-29.77,6.91-60.99-2.05-82.57-23.69-21.6-21.69-30.53-52.97-23.62-82.79,7.21-32.95,32.91-58.72,65.84-66.02,29.77-6.92,61,2.04,82.57,23.69,21.6,21.69,30.53,52.97,23.63,82.79Z"/>
</svg>