<?xml version="1.0" encoding="UTF-8"?>
<svg id="Camada_1" data-name="Camada 1" xmlns="http://www.w3.org/2000/svg" viewBox="0 0 220 220">
  <defs>
    <style>
      .cls-1 {
        fill: #fff;
      }
    </style>
  </defs>
  <path class="cls-1" d="m219.47,102.84c0,.43.08.89-.03,1.3-.21.78-.53,1.52-.81,2.28-.76-.45-1.7-.74-2.24-1.38-4.11-4.82-7.73-10.13-12.28-14.49-8.93-8.58-19.16-15.29-30.93-19.55-7.67-2.77-15.46-4.51-23.6-5.28-14.06-1.33-27.62.42-41.41,5.13,3.09,1.77,5.82,3.28,8.48,4.89,10.04,6.05,17.73,14.49,23.26,24.64,6.14,11.28,9.19,23.56,8.02,36.49-.85,9.38-4.49,17.77-10.71,25.03-6.19,7.22-13.75,12.26-22.94,14.51-10.36,2.54-20.84,2.75-31.38.69-15.04-2.94-27.64-10.72-39.51-19.84-12.38-9.52-22.01-21.43-29.53-35.13-4.67-8.51-8.16-17.45-10.42-26.83C1.29,86.27.08,77.07.63,67.73c.02-.34.12-.67.27-1.43,1.1.26,2.27.26,3.12.78,8.86,5.39,18.44,8.19,28.75,9.37,11.35,1.3,22-1.05,32.37-4.95,7.03-2.64,13.08-7.11,19.04-11.73,10.62-8.23,22.54-13.95,35.86-16.2,6.91-1.17,13.97-2.12,20.95-2.06,12.19.11,23.98,2.72,35.26,7.63,10.55,4.59,19.83,10.87,27.43,19.49,6.47,7.33,11.02,15.77,13.65,25.2.73,2.61,1.14,5.32,1.7,7.98l.42,1.04Z"/>
  <path class="cls-1" d="m142.34,78.04c.02-3.25,2.27-5.45,5.53-5.42,3.08.04,6.23,3,5.88,5.89-.39,3.23-2.78,5.88-5.85,5.63-3.3-.27-5.58-2.55-5.55-6.1Z"/>
  <path class="cls-1" d="m219.47,102.84l-.42-1.04.42,1.04Z"/>
</svg>